<mxfile host="drawio-plugin" agent="Mozilla/5.0 (X11; Linux x86_64) AppleWebKit/537.36 (KHTML, like Gecko) Chrome/122.0.0.0 Safari/537.36" modified="2024-08-23T14:03:02.807Z" etag="vyaA8bBG4-sP1k4GWwW3" version="22.1.22" type="embed">
  <diagram id="eHzZ9OGp5i8VgY1wDbR1" name="Page-1">
    <mxGraphModel dx="1780" dy="974" grid="1" gridSize="10" guides="1" tooltips="1" connect="1" arrows="1" fold="1" page="1" pageScale="1" pageWidth="827" pageHeight="1169" math="0" shadow="0">
      <root>
        <mxCell id="0" />
        <mxCell id="1" parent="0" />
        <mxCell id="PmYcDAFVUPF4pkXLYPq4-10" value="" style="swimlane;startSize=0;rounded=1;noLabel=0;portConstraintRotation=0;snapToPoint=1;fixDash=0;" vertex="1" parent="1">
          <mxGeometry x="199" y="405" width="430" height="360" as="geometry" />
        </mxCell>
        <mxCell id="PmYcDAFVUPF4pkXLYPq4-9" value="app-network" style="rounded=1;whiteSpace=wrap;html=1;" vertex="1" parent="PmYcDAFVUPF4pkXLYPq4-10">
          <mxGeometry x="10" y="10" width="100" height="30" as="geometry" />
        </mxCell>
        <mxCell id="PmYcDAFVUPF4pkXLYPq4-13" style="edgeStyle=orthogonalEdgeStyle;rounded=1;orthogonalLoop=1;jettySize=auto;html=1;entryX=0.5;entryY=0;entryDx=0;entryDy=0;curved=0;flowAnimation=1;" edge="1" parent="PmYcDAFVUPF4pkXLYPq4-10" source="PmYcDAFVUPF4pkXLYPq4-11" target="PmYcDAFVUPF4pkXLYPq4-4">
          <mxGeometry relative="1" as="geometry" />
        </mxCell>
        <mxCell id="PmYcDAFVUPF4pkXLYPq4-11" value="app" style="rounded=1;whiteSpace=wrap;html=1;" vertex="1" parent="PmYcDAFVUPF4pkXLYPq4-10">
          <mxGeometry x="30" y="120" width="120" height="60" as="geometry" />
        </mxCell>
        <mxCell id="PmYcDAFVUPF4pkXLYPq4-12" style="edgeStyle=orthogonalEdgeStyle;rounded=0;orthogonalLoop=1;jettySize=auto;html=1;entryX=1;entryY=0.5;entryDx=0;entryDy=0;curved=1;flowAnimation=1;exitX=0;exitY=0.5;exitDx=0;exitDy=0;exitPerimeter=0;" edge="1" parent="PmYcDAFVUPF4pkXLYPq4-10" source="PmYcDAFVUPF4pkXLYPq4-14" target="PmYcDAFVUPF4pkXLYPq4-11">
          <mxGeometry relative="1" as="geometry">
            <mxPoint x="260" y="150" as="sourcePoint" />
          </mxGeometry>
        </mxCell>
        <mxCell id="PmYcDAFVUPF4pkXLYPq4-4" value="nginx" style="rounded=1;whiteSpace=wrap;html=1;" vertex="1" parent="PmYcDAFVUPF4pkXLYPq4-10">
          <mxGeometry x="140" y="240" width="120" height="60" as="geometry" />
        </mxCell>
        <mxCell id="PmYcDAFVUPF4pkXLYPq4-14" value="db" style="shape=cylinder3;whiteSpace=wrap;html=1;boundedLbl=1;backgroundOutline=1;size=15;" vertex="1" parent="PmYcDAFVUPF4pkXLYPq4-10">
          <mxGeometry x="260" y="110" width="60" height="80" as="geometry" />
        </mxCell>
      </root>
    </mxGraphModel>
  </diagram>
</mxfile>
